<svg width="24" height="24" viewBox="0 0 24 24" fill="none" xmlns="http://www.w3.org/2000/svg">
<g clip-path="url(#clip0)">
<path d="M2.37498 2.49694C0.646146 4.29269 0.999979 6.20027 0.999979 11.9954C0.999979 16.8079 0.160312 21.6324 4.55481 22.7681C5.92706 23.121 18.0857 23.121 19.4561 22.7663C21.2858 22.2942 22.7745 20.8101 22.978 18.2224C23.0064 17.8612 23.0064 6.13611 22.9771 5.76761C22.7607 3.01119 21.064 1.42261 18.8282 1.10086C18.3158 1.02661 18.2131 1.00461 15.5841 1.00002C6.2589 1.00461 4.21473 0.589355 2.37498 2.49694Z" fill="#656565"/>
<path d="M12.0002 4.30741C8.84629 4.30741 5.85133 4.02707 4.70738 6.96064C4.23486 8.17225 4.30348 9.74579 4.30348 11.9989C4.30348 13.976 4.24007 15.8342 4.70738 17.0363C5.84873 19.9716 8.868 19.6904 11.9985 19.6904C15.0186 19.6904 18.1326 20.0046 19.2904 17.0363C19.7638 15.8125 19.6943 14.2624 19.6943 11.9989C19.6943 8.99417 19.8602 7.05437 18.4018 5.59801C16.9252 4.12254 14.9283 4.30741 11.9967 4.30741H12.0002ZM11.3105 5.69348C17.8893 5.68306 18.7267 4.95227 18.2646 15.1043C18.1004 18.6949 15.3643 18.3009 12.0011 18.3009C5.86871 18.3009 5.69238 18.1255 5.69238 11.9954C5.69238 5.79415 6.1788 5.69695 11.3105 5.69174V5.69348ZM16.1087 6.97018C15.5988 6.97018 15.1854 7.38331 15.1854 7.89278C15.1854 8.40225 15.5988 8.81538 16.1087 8.81538C16.6186 8.81538 17.032 8.40225 17.032 7.89278C17.032 7.38331 16.6186 6.97018 16.1087 6.97018ZM12.0002 8.04901C9.81739 8.04901 8.04804 9.81783 8.04804 11.9989C8.04804 14.18 9.81739 15.9479 12.0002 15.9479C14.183 15.9479 15.9515 14.18 15.9515 11.9989C15.9515 9.81783 14.183 8.04901 12.0002 8.04901ZM12.0002 9.43507C15.3921 9.43507 15.3964 14.5627 12.0002 14.5627C8.60916 14.5627 8.60395 9.43507 12.0002 9.43507Z" fill="#FEFEFE"/>
</g>
<defs>
<clipPath id="clip0">
<rect width="22" height="22" fill="white" transform="translate(1 1)"/>
</clipPath>
</defs>
</svg>
