<svg width="207" height="64" viewBox="0 0 207 64" fill="none" xmlns="http://www.w3.org/2000/svg">
<path d="M118.306 51.7082C118.306 51.7082 118.306 52.5006 118.306 52.9252C117.966 58.5855 117.598 60.9063 116.749 61.8686C116.446 62.176 116.085 62.4196 115.686 62.5849C115.288 62.7502 114.86 62.8338 114.428 62.8308C113.044 62.9494 111.652 62.9494 110.268 62.8308C110.192 61.8335 109.892 60.8661 109.391 60.0006C110.575 60.1212 111.766 60.1779 112.957 60.1705C113.161 60.198 113.369 60.1847 113.568 60.1313C113.767 60.0778 113.954 59.9853 114.117 59.8592C114.57 59.4063 114.853 57.8214 115.108 54.1988H97.4472C95.5464 55.7663 93.4305 57.053 91.1642 58.0195C90.6322 57.1572 90.0261 56.3428 89.3528 55.5855C92.7007 54.4002 95.7045 52.4073 98.0982 49.7836H94.4189V39.9911C97.0886 39.4733 99.7108 38.7349 102.259 37.7836L104.183 39.7648C101.91 40.5527 99.5831 41.1769 97.2208 41.6327V43.4723H103.391V45.6515H97.2208V47.5478H112.306V45.6515H106.221V43.4723H112.306V41.661H105.626V39.3119H115.164V49.6987H101.608C101.155 50.3669 100.654 51.0007 100.108 51.595L118.306 51.7082ZM119.24 34.3025V40.6704H116.24V37.0195H93.2302V40.6704H90.4V34.3025H102.966C102.71 33.6497 102.407 33.016 102.06 32.4062L105.287 31.5006C105.819 32.4169 106.301 33.3617 106.73 34.3308L119.24 34.3025ZM93.5415 60.9629C94.8425 59.1831 95.8021 57.1775 96.3717 55.0478L98.8906 56.095C98.2341 58.2448 97.2815 60.2927 96.0604 62.1799L93.5415 60.9629ZM102.485 55.3025C103.163 57.2155 103.554 59.2184 103.645 61.2459L101.07 61.5856C101.025 59.558 100.692 57.5472 100.079 55.6139L102.485 55.3025ZM106.56 55.0761C107.526 56.6282 108.224 58.331 108.626 60.1139L106.249 60.7931C105.86 59.0102 105.211 57.2939 104.325 55.6988L106.56 55.0761ZM111.089 59.2365C110.405 57.9052 109.538 56.6762 108.513 55.5855L110.579 54.6799C111.647 55.7005 112.546 56.8853 113.24 58.1893L111.089 59.2365Z" fill="#FEFEFE"/>
<path d="M142.73 32.6039C141.794 35.0647 140.668 37.4492 139.362 39.736V62.7455H136.164V44.7454C135.295 45.9191 134.349 47.0346 133.334 48.0851C132.852 46.9337 132.254 45.8338 131.551 44.8021C135.135 41.0315 137.901 36.5605 139.674 31.6699L142.73 32.6039ZM153.032 40.1322V44.4624H162.287V47.2926H153.032V51.8209H162.768V54.6511H153.032V62.5474H149.778V39.9058H147.881C146.612 42.3654 145.054 44.6647 143.24 46.7549C142.49 45.9687 141.666 45.2577 140.778 44.6322C144.106 40.8711 146.613 36.4561 148.136 31.6699L151.193 32.4907C150.627 33.9624 150.061 35.3209 149.41 36.8775H163.108V39.9058L153.032 40.1322Z" fill="#FEFEFE"/>
<path d="M192.485 32.4906C192.315 32.6887 192.174 32.9435 191.976 33.1416C196.084 36.4726 200.941 38.7551 206.127 39.7925C205.361 40.5088 204.686 41.3168 204.117 42.1982C203.297 41.9718 202.419 41.6888 201.57 41.3774V50.2077H178.532V41.7171C177.683 42.0284 176.863 42.2831 176.014 42.5378C175.542 41.6647 174.972 40.8481 174.315 40.1038C180.169 38.9321 185.511 35.9641 189.598 31.6133L192.485 32.4906ZM201.514 41.3491C199.627 40.7067 197.799 39.9018 196.051 38.9435V39.934H184.278V39.1133C182.681 39.9729 181.026 40.72 179.325 41.3491H201.514ZM180.57 51.5662H199.985V62.8869H196.759V61.953H183.683V63.0002H180.57V51.5662ZM185.183 43.6416C185.948 44.7944 186.539 46.0531 186.938 47.3775L184.674 48.1416H188.693V43.4435H181.306V48.1416H184.589C184.226 46.8011 183.683 45.5158 182.976 44.3208L185.183 43.6416ZM183.683 55.6416H196.759V53.7454H183.683V55.6416ZM196.759 57.8209H183.683V59.7171H196.759V57.8209ZM193.929 37.7548C192.589 36.9432 191.337 35.9947 190.193 34.9246C189.048 35.9816 187.807 36.9292 186.485 37.7548H193.929ZM198.74 43.4152H191.183V48.1133H195.004L192.882 47.4624C193.565 46.185 194.133 44.8496 194.58 43.4718L197.24 44.2359C196.504 45.6793 195.74 47.0661 195.146 48.1133H198.74V43.4152Z" fill="#FEFEFE"/>
<path d="M94.617 15.5383V9.45339C93.7194 11.1962 92.5218 12.7674 91.0793 14.0949C90.6182 13.4697 90.0864 12.8998 89.4944 12.3968C91.5605 10.721 93.1835 8.5635 94.2208 6.11375H90.117V4.04771H94.617V0.340147H96.9095V4.04771H100.815V6.11375H96.9095V7.35904C97.9 7.95338 100.476 9.84961 101.155 10.1892L99.8529 12.1704C99.2302 11.5194 97.985 10.359 97.0227 9.34018V15.2553L94.617 15.5383Z" fill="#FEFEFE"/>
<path d="M89.8623 21.6793C90.9359 20.0452 91.7387 18.2485 92.2397 16.3585L94.3623 17.2076C93.8484 19.1907 93.0677 21.0949 92.0415 22.868L89.8623 21.6793Z" fill="#FEFEFE"/>
<path d="M102.145 15.7363C103.249 16.7551 104.721 18.1702 105.485 19.0476L103.843 20.4344C102.833 19.2152 101.756 18.053 100.617 16.9533L102.145 15.7363Z" fill="#FEFEFE"/>
<path d="M101.976 15.2266H112.249V1.61331H101.976V15.2266ZM109.928 13.302H104.268V11.236H109.928V13.302ZM109.928 9.42465H104.268V7.38692H109.928V9.42465ZM109.928 5.54729H104.268V3.56614H109.928V5.54729Z" fill="#FEFEFE"/>
<path d="M162.796 21.0567C162.796 22.2171 162.542 22.868 161.806 23.2359C160.676 23.6511 159.464 23.7965 158.268 23.6605C158.136 22.9135 157.897 22.1892 157.561 21.5095H160.051C160.391 21.5095 160.504 21.5095 160.504 21.0284V15.368H156.23C156.097 18.4812 155.224 21.5179 153.683 24.2265C153.106 23.7277 152.457 23.3175 151.759 23.0095C153.651 19.2468 154.483 15.0395 154.164 10.8397V1.55662H162.796V21.0567ZM160.504 13.1321V9.50948H156.4V10.7831C156.4 11.4906 156.4 12.3114 156.4 13.1321H160.504ZM156.4 7.47173H160.504V3.73587H156.4V7.47173ZM174.598 21.2265C174.598 22.5284 174.372 23.2642 173.523 23.6605C172.213 24.0555 170.839 24.1996 169.476 24.085C169.352 23.2599 169.104 22.4582 168.74 21.7076C170.042 21.7076 171.372 21.7076 171.74 21.7076C172.108 21.7076 172.278 21.7076 172.278 21.1699V15.5095H167.41C167.24 18.6736 166.266 21.7421 164.579 24.4246C163.981 23.8974 163.302 23.4676 162.57 23.151C164.774 19.3289 165.762 14.9258 165.4 10.5284V1.55662H174.627L174.598 21.2265ZM172.278 13.2736V9.50948H167.664V10.3585C167.664 11.2359 167.664 12.1699 167.664 13.1887L172.278 13.2736ZM167.664 7.61324H172.278V3.73587H167.664V7.61324Z" fill="#FEFEFE"/>
<path d="M202.759 10.4151C201.938 13.6288 200.266 16.5619 197.919 18.9057C200.386 20.3689 203.118 21.3306 205.957 21.7359C205.533 22.2454 204.882 23.2359 204.4 23.9718C201.358 23.3859 198.468 22.1818 195.91 20.434C193.654 22.0333 191.148 23.2478 188.495 24.0284C188.126 23.2794 187.67 22.5764 187.136 21.934C189.593 21.346 191.917 20.2994 193.985 18.8491C192.33 17.2079 190.97 15.2929 189.966 13.1887C188.878 16.9471 186.807 20.347 183.966 23.0378C183.386 22.3596 182.685 21.7936 181.9 21.368C185.988 17.4293 188.503 12.1379 188.976 6.48116H182.834V4.13209H189.287C189.457 2.23585 189.485 0.764153 189.542 0H192.032C192.032 0.877361 192.033 2.32076 191.749 4.13209H205.165V6.48116H191.438C191.438 7.44342 191.127 8.51889 190.929 9.59437H200.551H201.033L202.759 10.4151ZM191.891 12.1416C192.838 14.1956 194.219 16.0204 195.938 17.4906C197.509 15.9768 198.752 14.1561 199.589 12.1416H191.891Z" fill="#FEFEFE"/>
<path d="M111.598 21.453V23.604H99.7962C96.6547 23.604 95.8623 22.953 95.8623 20.7738V16.67H98.2396V20.6323C98.2396 21.3398 98.4944 21.453 99.9944 21.453H111.598Z" fill="#FEFEFE"/>
<path d="M110.07 15.7076C110.947 16.9246 112.108 18.5378 112.674 19.6416L110.806 20.6604C110.296 19.6416 109.164 17.8302 108.315 16.6133L110.07 15.7076Z" fill="#FEFEFE"/>
<path d="M132.655 22.0193V24.1136H134.891C135.348 24.1289 135.804 24.0429 136.225 23.8619C136.645 23.6809 137.021 23.4093 137.325 23.0665C137.981 22.0408 138.376 20.8697 138.475 19.6558C138.574 18.442 138.373 17.2224 137.891 16.1042L138.796 15.708C139.484 18.3964 141.011 20.7956 143.155 22.557C143.575 21.9 144.08 21.3006 144.655 20.774C142.666 19.3148 141.222 17.2329 140.551 14.8589C141.485 14.4061 142.419 13.8966 143.381 13.4155L141.74 11.8589C140.332 12.8392 138.857 13.7188 137.325 14.491C136.774 13.3928 135.992 12.4272 135.032 11.6608L135.287 11.406H142.73V5.74565H137.523C138.246 4.8975 138.908 3.99901 139.504 3.05696L138.089 2.0381H137.608H133.278C133.561 1.58527 133.815 1.10413 134.042 0.651299L131.806 0.226765C130.489 2.87939 128.546 5.17174 126.145 6.90603C126.714 7.35612 127.21 7.89062 127.617 8.49095L128.806 7.55698V11.406H132.57C130.805 12.5323 128.903 13.4265 126.91 14.0664C127.404 14.5241 127.832 15.0479 128.183 15.623C130.101 14.8992 131.925 13.9491 133.617 12.7929C133.851 13.1255 134.059 13.4756 134.24 13.84C132.029 15.5696 129.5 16.8485 126.796 17.6042C127.291 18.059 127.728 18.5722 128.098 19.1325C130.63 18.1987 132.999 16.871 135.117 15.1985C135.296 15.5676 135.457 15.9454 135.598 16.3306C133.034 18.6418 129.975 20.3359 126.655 21.2834C127.194 21.7712 127.661 22.3335 128.042 22.9533C130.985 21.9161 133.71 20.3424 136.079 18.3117C136.308 19.4145 136.094 20.5627 135.485 21.5099C135.366 21.6626 135.216 21.7891 135.046 21.8816C134.875 21.9741 134.688 22.0306 134.494 22.0476C134.013 22.0476 132.542 22.0476 132.542 22.0476L132.655 22.0193ZM136.589 7.55698H140.438V9.70793H136.589V7.55698ZM132.004 3.99093H136.249C135.88 4.61244 135.443 5.19141 134.947 5.71736H130.532C131.07 5.15132 131.523 4.55697 132.004 3.99093ZM134.41 9.65133H130.759V7.50037H134.41V9.65133Z" fill="#FEFEFE"/>
<path d="M126.004 0.368153C124.737 4.085 122.724 7.50392 120.089 10.4154C120.63 11.1691 121.077 11.9865 121.419 12.8493C122.105 12.0938 122.747 11.3 123.344 10.472V24.1135H125.749V6.70779C126.758 4.89697 127.61 3.00328 128.296 1.04739L126.004 0.368153Z" fill="#FEFEFE"/>
<path d="M75.117 0.480852H71.6641V62.915H75.117V0.480852Z" fill="#FEFEFE"/>
<mask id="mask0" mask-type="alpha" maskUnits="userSpaceOnUse" x="0" y="0" width="58" height="64">
<path d="M55.8307 59.9082V4.54361C55.8307 3.40508 54.9078 2.48216 53.7693 2.48216H4.29449C3.15596 2.48216 2.23304 3.40513 2.23304 4.54361V59.9083C2.23304 61.0468 3.15601 61.9697 4.29449 61.9697H53.7693C54.9078 61.9697 55.8307 61.0467 55.8307 59.9082Z" fill="black" stroke="black" stroke-width="3.53391" stroke-linecap="round"/>
</mask>
<g mask="url(#mask0)">
<path d="M55.8307 59.9083V4.54363C55.8307 3.40511 54.9078 2.48218 53.7693 2.48218H4.29449C3.15596 2.48218 2.23304 3.40515 2.23304 4.54363V59.9083C2.23304 61.0468 3.15601 61.9697 4.29449 61.9697H53.7693C54.9078 61.9697 55.8307 61.0467 55.8307 59.9083Z" fill="#F05454" stroke="black" stroke-width="3.53391" stroke-linecap="round"/>
<path d="M27.5594 44.6525L28.6021 46.7677L49.6464 -1.64062H47.7987L27.5594 44.6525Z" fill="#FEFEFE"/>
<path d="M12.8348 35.8175L13.8775 37.9327L34.9217 -10.4756H33.0741L12.8348 35.8175Z" fill="#FEFEFE"/>
<path d="M-1.88988 26.9826L-0.847177 29.0978L20.1971 -19.3105H18.3494L-1.88988 26.9826Z" fill="#FEFEFE"/>
<path d="M4 27.8085L3.13804 26.2661L2.23304 26.7718V27.8085V59.9082C2.23304 61.0468 3.156 61.9697 4.29449 61.9697H53.7693C54.9078 61.9697 55.8307 61.0467 55.8307 59.9082V27.8085V26.7718L54.9257 26.2661L54.0638 27.8085C54.9257 26.2661 54.9245 26.2654 54.9233 26.2647L54.9207 26.2633L54.9152 26.2602L54.9027 26.2534L54.8718 26.2369C54.8486 26.2246 54.82 26.2099 54.7858 26.193C54.7175 26.159 54.6267 26.116 54.5114 26.0651C54.2807 25.9635 53.9515 25.8306 53.5062 25.6775C52.6162 25.3714 51.2595 24.9833 49.2957 24.6016C45.3711 23.8387 38.9963 23.0966 29.0319 23.0966C19.0675 23.0966 12.6927 23.8387 8.76805 24.6016C6.80429 24.9833 5.44762 25.3714 4.55759 25.6775C4.11233 25.8306 3.78304 25.9635 3.55238 26.0651C3.43703 26.116 3.34627 26.159 3.27794 26.193C3.24378 26.2099 3.21521 26.2246 3.19199 26.2369L3.16112 26.2534L3.14862 26.2602L3.14309 26.2633L3.14051 26.2647C3.13926 26.2654 3.13804 26.2661 4 27.8085Z" fill="black" stroke="black" stroke-width="3.53391" stroke-linecap="round"/>
<path d="M15.7797 9.31326L16.8224 11.4285L37.8667 -36.9798H36.019L15.7797 9.31326Z" fill="#FEFEFE"/>
<path d="M14.5076 10.1388L15.9375 13.0286L19.1252 13.5053L16.8313 15.7396L17.3675 18.9273L14.5076 17.4378L11.6476 18.9273L12.1838 15.7396L9.88986 13.5053L13.0776 13.0286L14.5076 10.1388Z" fill="#FEFEFE"/>
<path d="M45.229 24.038L46.2717 26.1532L67.316 -22.2551H65.4683L45.229 24.038Z" fill="#FEFEFE"/>
<path d="M43.9568 24.8636L45.3868 27.7533L48.5745 28.23L46.2508 30.4644L46.8168 33.6521L43.9568 32.1625L41.0969 33.6521L41.6331 30.4644L39.3392 28.23L42.5269 27.7533L43.9568 24.8636Z" fill="#FEFEFE"/>
<path d="M30.5043 18.1482L31.547 20.2634L52.5913 -28.1449H50.7436L30.5043 18.1482Z" fill="#FEFEFE"/>
<path d="M29.2322 18.9737L30.6622 21.8635L33.8499 22.3104L31.5559 24.5745L32.0922 27.7622L29.2322 26.2429L26.3722 27.7622L26.9084 24.5745L24.6145 22.3104L27.8022 21.8635L29.2322 18.9737Z" fill="#FEFEFE"/>
<path d="M24.47 39.5884H21.6696V57.4931H24.47V39.5884Z" fill="#FEFEFE"/>
<path d="M36.7143 42.4184V39.5882H31.7987H30.3985H28.9685V57.5227H31.7987V49.7173H36.7143V46.9169H31.7987V42.4184H36.7143Z" fill="#FEFEFE"/>
<path d="M55.8307 59.9083V4.54363C55.8307 3.40511 54.9078 2.48218 53.7693 2.48218H4.29449C3.15596 2.48218 2.23304 3.40515 2.23304 4.54363V59.9083C2.23304 61.0468 3.15601 61.9697 4.29449 61.9697H53.7693C54.9078 61.9697 55.8307 61.0467 55.8307 59.9083Z" stroke="#FEFEFE" stroke-width="3.53391" stroke-linecap="round"/>
</g>
</svg>
