<svg width="443" height="273" viewBox="0 0 443 273" fill="none" xmlns="http://www.w3.org/2000/svg">
<g clip-path="url(#clip0)">
<path d="M252.484 248.82C252.484 248.82 252.484 250.53 252.484 251.446C251.751 263.658 250.957 268.665 249.125 270.741C248.472 271.404 247.692 271.93 246.832 272.286C245.972 272.643 245.05 272.823 244.119 272.817C241.132 273.073 238.129 273.073 235.143 272.817C234.979 270.665 234.332 268.578 233.25 266.711C235.806 266.971 238.374 267.093 240.943 267.077C241.384 267.137 241.833 267.108 242.263 266.993C242.692 266.877 243.095 266.678 243.447 266.406C244.424 265.429 245.034 262.009 245.584 254.193H207.482C203.382 257.575 198.817 260.351 193.927 262.437C192.779 260.576 191.472 258.819 190.019 257.185C197.242 254.628 203.723 250.329 208.887 244.668H200.949V223.541C206.709 222.424 212.366 220.831 217.863 218.779L222.015 223.053C217.11 224.753 212.091 226.099 206.994 227.083V231.052H220.305V235.753H206.994V239.844H239.539V235.753H226.411V231.052H239.539V227.144H225.129V222.076H245.706V244.485H216.458C215.482 245.927 214.4 247.294 213.222 248.576L252.484 248.82ZM254.499 211.268V225.007H248.026V217.13H198.384V225.007H192.278V211.268H219.389C218.836 209.86 218.183 208.493 217.435 207.177L224.396 205.223C225.545 207.2 226.585 209.238 227.51 211.329L254.499 211.268ZM199.056 268.787C201.863 264.947 203.933 260.62 205.162 256.025L210.597 258.285C209.18 262.923 207.125 267.341 204.49 271.412L199.056 268.787ZM218.351 256.575C219.814 260.702 220.658 265.023 220.855 269.397L215.298 270.13C215.202 265.756 214.482 261.418 213.161 257.246L218.351 256.575ZM227.144 256.086C229.226 259.435 230.733 263.109 231.601 266.955L226.472 268.42C225.632 264.574 224.233 260.871 222.32 257.43L227.144 256.086ZM236.913 265.062C235.438 262.19 233.568 259.539 231.357 257.185L235.814 255.231C238.119 257.433 240.056 259.99 241.554 262.803L236.913 265.062Z" fill="black"/>
<path d="M305.179 207.605C303.158 212.914 300.729 218.058 297.913 222.992V272.634H291.013V233.799C289.136 236.331 287.097 238.738 284.907 241.004C283.865 238.52 282.577 236.147 281.06 233.921C288.792 225.787 294.759 216.141 298.584 205.59L305.179 207.605ZM327.405 223.847V233.189H347.371V239.295H327.405V249.064H348.409V255.17H327.405V272.206H320.383V223.358H316.292C313.553 228.664 310.192 233.625 306.278 238.135C304.661 236.438 302.881 234.905 300.966 233.555C308.147 225.441 313.555 215.915 316.841 205.59L323.436 207.36C322.215 210.535 320.993 213.466 319.589 216.825H349.142V223.358L327.405 223.847Z" fill="black"/>
<path d="M412.523 207.36C412.156 207.788 411.851 208.337 411.423 208.765C420.287 215.951 430.764 220.876 441.954 223.114C440.301 224.659 438.845 226.402 437.618 228.304C435.848 227.815 433.955 227.205 432.123 226.533V245.584H382.42V227.266C380.588 227.938 378.817 228.487 376.986 229.037C375.968 227.153 374.738 225.391 373.322 223.785C385.95 221.257 397.476 214.854 406.294 205.467L412.523 207.36ZM432.001 226.472C427.93 225.086 423.987 223.35 420.216 221.282V223.419H394.815V221.648C391.37 223.503 387.799 225.115 384.13 226.472H432.001ZM386.816 248.515H428.703V272.939H421.743V270.924H393.533V273.183H386.816V248.515ZM396.769 231.418C398.418 233.905 399.694 236.621 400.555 239.478L395.67 241.127H404.341V230.991H388.404V241.127H395.487C394.704 238.234 393.533 235.462 392.006 232.883L396.769 231.418ZM393.533 257.307H421.743V253.216H393.533V257.307ZM421.743 262.009H393.533V266.1H421.743V262.009ZM415.637 218.717C412.746 216.966 410.045 214.92 407.577 212.611C405.107 214.892 402.429 216.936 399.578 218.717H415.637ZM426.017 230.929H409.714V241.065H417.957L413.377 239.661C414.851 236.905 416.077 234.024 417.041 231.052L422.781 232.7C421.193 235.814 419.545 238.806 418.262 241.065H426.017V230.929Z" fill="black"/>
<path d="M201.376 170.785V157.657C199.44 161.418 196.856 164.807 193.744 167.671C192.749 166.322 191.602 165.093 190.325 164.008C194.782 160.392 198.284 155.738 200.522 150.452H191.668V145.995H201.376V137.996H206.322V145.995H214.749V150.452H206.322V153.139C208.459 154.421 214.016 158.512 215.481 159.245L212.673 163.519C211.329 162.115 208.643 159.611 206.567 157.413V170.175L201.376 170.785Z" fill="black"/>
<path d="M191.118 184.035C193.435 180.51 195.167 176.633 196.247 172.556L200.827 174.388C199.718 178.666 198.034 182.774 195.82 186.6L191.118 184.035Z" fill="black"/>
<path d="M217.618 171.213C220 173.411 223.175 176.464 224.824 178.357L221.282 181.349C219.103 178.718 216.779 176.211 214.321 173.838L217.618 171.213Z" fill="black"/>
<path d="M217.252 170.114H239.417V140.744H217.252V170.114ZM234.41 165.962H222.198V161.504H234.41V165.962ZM234.41 157.596H222.198V153.2H234.41V157.596ZM234.41 149.231H222.198V144.957H234.41V149.231Z" fill="black"/>
<path d="M348.47 182.692C348.47 185.195 347.921 186.6 346.333 187.394C343.895 188.289 341.282 188.603 338.701 188.31C338.415 186.698 337.901 185.135 337.174 183.669H342.548C343.28 183.669 343.525 183.669 343.525 182.631V170.419H334.304C334.017 177.136 332.133 183.687 328.809 189.531C327.563 188.455 326.164 187.57 324.657 186.905C328.74 178.787 330.535 169.71 329.847 160.649V140.622H348.47V182.692ZM343.525 165.595V157.779H334.671V160.527C334.671 162.054 334.671 163.824 334.671 165.595H343.525ZM334.671 153.383H343.525V145.323H334.671V153.383ZM373.932 183.058C373.932 185.867 373.444 187.455 371.612 188.31C368.785 189.162 365.823 189.473 362.881 189.225C362.614 187.445 362.079 185.716 361.293 184.096C364.102 184.096 366.972 184.096 367.765 184.096C368.559 184.096 368.926 184.096 368.926 182.936V170.724H358.423C358.057 177.551 355.956 184.171 352.317 189.958C351.025 188.821 349.562 187.894 347.982 187.21C352.738 178.964 354.868 169.465 354.088 159.978V140.622H373.994L373.932 183.058ZM368.926 165.9V157.779H358.973V159.611C358.973 161.504 358.973 163.519 358.973 165.717L368.926 165.9ZM358.973 153.688H368.926V145.323H358.973V153.688Z" fill="black"/>
<path d="M434.687 159.733C432.917 166.667 429.31 172.995 424.246 178.051C429.568 181.208 435.461 183.283 441.587 184.157C440.671 185.257 439.267 187.394 438.229 188.981C431.665 187.717 425.43 185.119 419.911 181.349C415.043 184.799 409.637 187.419 403.913 189.103C403.117 187.487 402.133 185.971 400.982 184.585C406.283 183.316 411.296 181.058 415.759 177.929C412.187 174.388 409.253 170.257 407.088 165.717C404.741 173.826 400.272 181.161 394.143 186.966C392.89 185.503 391.38 184.282 389.686 183.364C398.505 174.866 403.931 163.45 404.951 151.246H391.701V146.178H405.623C405.989 142.087 406.05 138.912 406.172 137.263H411.546C411.546 139.156 411.546 142.27 410.935 146.178H439.877V151.246H410.263C410.263 153.322 409.592 155.642 409.164 157.963H429.925H430.963L434.687 159.733ZM411.24 163.458C413.284 167.89 416.263 171.827 419.972 174.998C423.361 171.733 426.042 167.804 427.849 163.458H411.24Z" fill="black"/>
<path d="M238.013 183.547V188.187H212.55C205.773 188.187 204.063 186.783 204.063 182.081V173.228H209.192V181.776C209.192 183.303 209.742 183.547 212.978 183.547H238.013Z" fill="black"/>
<path d="M234.715 171.152C236.608 173.777 239.112 177.258 240.333 179.639L236.303 181.837C235.204 179.639 232.761 175.731 230.93 173.106L234.715 171.152Z" fill="black"/>
<path d="M283.441 184.768V189.286H288.265C289.253 189.319 290.235 189.134 291.143 188.743C292.051 188.353 292.861 187.767 293.516 187.027C294.933 184.815 295.785 182.288 295.998 179.669C296.211 177.05 295.778 174.419 294.737 172.006L296.691 171.152C298.175 176.952 301.469 182.128 306.095 185.928C307.002 184.511 308.089 183.218 309.331 182.081C305.04 178.933 301.923 174.442 300.477 169.32C302.492 168.343 304.507 167.244 306.583 166.206L303.042 162.847C300.004 164.962 296.821 166.86 293.516 168.526C292.329 166.157 290.641 164.074 288.57 162.42L289.12 161.87H305.179V149.658H293.944C295.504 147.829 296.932 145.89 298.218 143.858L295.165 141.66H294.127H284.785C285.395 140.683 285.945 139.645 286.433 138.668L281.609 137.752C278.768 143.475 274.577 148.42 269.397 152.162C270.624 153.133 271.695 154.286 272.573 155.581L275.137 153.566V161.87H283.258C279.451 164.3 275.346 166.229 271.046 167.61C272.113 168.597 273.037 169.728 273.794 170.968C277.931 169.407 281.866 167.357 285.517 164.862C286.022 165.58 286.471 166.335 286.861 167.122C282.091 170.853 276.635 173.612 270.802 175.243C271.868 176.224 272.811 177.331 273.611 178.54C279.073 176.525 284.184 173.661 288.753 170.053C289.14 170.849 289.487 171.664 289.792 172.495C284.259 177.481 277.659 181.136 270.497 183.18C271.66 184.233 272.668 185.446 273.488 186.783C279.838 184.546 285.718 181.15 290.83 176.769C291.322 179.148 290.861 181.625 289.547 183.669C289.29 183.998 288.967 184.271 288.599 184.471C288.232 184.671 287.827 184.792 287.41 184.829C286.372 184.829 283.197 184.829 283.197 184.829L283.441 184.768ZM291.929 153.566H300.233V158.207H291.929V153.566ZM282.037 145.873H291.196C290.399 147.214 289.457 148.463 288.387 149.597H278.862C280.022 148.376 280.999 147.094 282.037 145.873ZM287.227 158.085H279.35V153.444H287.227V158.085Z" fill="black"/>
<path d="M269.092 138.057C266.358 146.076 262.016 153.452 256.331 159.733C257.499 161.36 258.463 163.123 259.2 164.985C260.68 163.354 262.066 161.642 263.352 159.856V189.286H268.543V151.735C270.719 147.828 272.557 143.742 274.038 139.522L269.092 138.057Z" fill="black"/>
<path d="M159.306 138.301H151.857V273H159.306V138.301Z" fill="black"/>
<path d="M21.1268 76.9969L24.0577 82.9197L30.5912 83.8967L25.8895 88.4762L26.9886 95.0096L21.1268 91.9566L15.2651 95.0096L16.3642 88.4762L11.6625 83.8967L18.196 82.9197L21.1268 76.9969Z" fill="black"/>
<path d="M47.8101 122.242L50.741 128.165L57.2744 129.142L52.5117 133.722L53.6719 140.255L47.8101 137.202L41.9483 140.255L43.0474 133.722L38.3458 129.142L44.8792 128.165L47.8101 122.242Z" fill="black"/>
<path d="M81.3932 151.368L84.3241 157.291L90.8575 158.207L86.1559 162.848L87.255 169.381L81.3932 166.267L75.5314 169.381L76.6305 162.848L71.9289 158.207L78.4623 157.291L81.3932 151.368Z" fill="black"/>
<path d="M115.892 5.7631e-08H3.05301C2.24819 0.0156319 1.48073 0.34229 0.911533 0.911486C0.342336 1.48068 0.0156319 2.24819 0 3.05301V269.947C0 270.757 0.321653 271.533 0.894203 272.106C1.46675 272.678 2.2433 273 3.05301 273H115.892C116.298 273.008 116.702 272.935 117.079 272.785C117.457 272.636 117.801 272.412 118.091 272.128C118.381 271.843 118.611 271.504 118.768 271.13C118.925 270.755 119.006 270.353 119.006 269.947V3.05301C118.99 2.23773 118.655 1.46124 118.073 0.890383C117.491 0.319523 116.708 -0.000156711 115.892 5.7631e-08ZM111.801 21.2489L45.0014 191.179C32.3015 191.701 19.6416 192.944 7.083 194.904V182.692L75.8368 7.2051H94.5212L50.5579 119.495L52.695 123.769L98.3679 7.2051H111.496L111.801 21.2489ZM86.278 152.895L111.496 88.5372V136.592L89.5753 192.523H90.247C79.9889 191.607 69.6697 191.118 59.2284 191.118C55.748 191.118 52.3286 191.118 48.9092 191.118L111.496 31.0186V78.7676L84.202 148.804L86.278 152.895ZM25.6453 77.8517L53.3055 7.2051H71.9899L7.2051 172.8V67.5936L30.8354 7.2051H49.5198L23.5082 73.5164L25.6453 77.8517ZM26.9886 7.2051L7.2051 57.7629V7.2051H26.9886ZM111.496 265.856H7.2051V201.56C24.4202 198.924 41.8127 197.617 59.2284 197.652C76.7293 197.629 94.2052 198.977 111.496 201.682V265.856ZM93.1778 192.584H93.6052L111.923 146.056V194.904C105.817 193.988 99.7113 193.194 93.6052 192.523" fill="black"/>
<path d="M49.6419 223.236H43.9023V259.933H49.6419V223.236Z" fill="black"/>
<path d="M74.7376 229.037V223.236H64.6627H61.7929H58.862V259.994H64.6627V243.996H74.7376V238.257H64.6627V229.037H74.7376Z" fill="black"/>
</g>
<defs>
<clipPath id="clip0">
<rect width="442.137" height="273" fill="white"/>
</clipPath>
</defs>
</svg>
